<svg width="128" height="48" fill="none" xmlns="http://www.w3.org/2000/svg"><path fill="#fff" d="M0 0h128v48H0z"/><path d="M59.022 15.01a.741.741 0 0 0-.343-.237 1.083 1.083 0 0 0-.644-.05.91.91 0 0 0-.227.083.5.5 0 0 0-.173.15.38.38 0 0 0-.067.227c0 .142.053.252.16.327.107.076.241.14.404.194.162.053.337.106.523.16.187.053.362.129.524.226.162.098.297.23.404.394.107.165.16.385.16.66 0 .263-.049.492-.147.687-.098.196-.23.359-.397.488s-.36.224-.58.287c-.22.062-.453.093-.697.093-.307 0-.592-.047-.854-.14a2.14 2.14 0 0 1-.734-.454l.74-.814a1.148 1.148 0 0 0 1.164.417.829.829 0 0 0 .234-.09.5.5 0 0 0 .167-.153.383.383 0 0 0 .063-.22.399.399 0 0 0-.163-.337 1.506 1.506 0 0 0-.41-.21 12.715 12.715 0 0 0-.534-.174 2.394 2.394 0 0 1-.534-.234 1.282 1.282 0 0 1-.41-.386c-.11-.16-.164-.372-.164-.634 0-.254.05-.476.15-.667.1-.192.234-.352.4-.481.167-.129.36-.225.578-.29.218-.065.442-.097.674-.097.266 0 .524.038.773.114.25.075.474.202.674.38l-.714.78ZM60.804 13.855h3.209v.96h-2.168v.882h2.048v.96h-2.048v.961h2.288v.96h-3.33v-4.723ZM68.302 15.083a1.024 1.024 0 0 0-.376-.287c-.15-.066-.322-.1-.517-.1a1.3 1.3 0 0 0-.978.43 1.478 1.478 0 0 0-.287.484c-.069.187-.103.39-.103.607 0 .223.034.426.103.61.07.185.164.345.284.481.12.136.261.241.424.317.162.076.336.113.523.113.214 0 .403-.044.567-.133.165-.09.3-.214.407-.374l.868.647c-.2.28-.454.488-.76.62-.308.134-.624.2-.948.2-.37 0-.71-.057-1.021-.173a2.244 2.244 0 0 1-1.337-1.28 2.664 2.664 0 0 1-.19-1.028c0-.378.062-.72.19-1.027a2.251 2.251 0 0 1 1.337-1.281 2.908 2.908 0 0 1 1.438-.137c.144.024.286.063.426.117.14.053.275.124.404.213.13.09.245.198.347.327l-.8.654ZM74.013 16.758c0 .28-.042.538-.127.773-.084.236-.21.44-.376.614-.167.174-.375.31-.624.407-.25.098-.536.147-.86.147-.33 0-.62-.049-.868-.147a1.722 1.722 0 0 1-.624-.407 1.703 1.703 0 0 1-.377-.614 2.276 2.276 0 0 1-.127-.773v-2.903h1.041v2.863c0 .146.023.282.07.406a.98.98 0 0 0 .197.324.892.892 0 0 0 .304.214.955.955 0 0 0 .383.076.902.902 0 0 0 .68-.29c.085-.091.15-.2.197-.324.047-.124.07-.26.07-.406v-2.863h1.041v2.903ZM76.262 15.81h.614c.093 0 .192-.003.296-.01a.92.92 0 0 0 .284-.06.49.49 0 0 0 .21-.157.48.48 0 0 0 .084-.3.498.498 0 0 0-.074-.287.488.488 0 0 0-.187-.163.819.819 0 0 0-.26-.077 2.13 2.13 0 0 0-.287-.02h-.68v1.074Zm-1.041-1.955h1.828c.24 0 .468.024.684.07.216.047.405.125.567.234.162.109.291.256.387.44.096.185.143.415.143.69 0 .334-.086.618-.26.851-.173.234-.427.382-.76.444l1.2 1.995h-1.247l-.987-1.888h-.514v1.888H75.22v-4.724ZM79.83 13.855h3.21v.96h-2.169v.882h2.05v.96h-2.05v.961h2.289v.96h-3.33v-4.723ZM85.282 17.618h.54c.24 0 .464-.024.67-.073.207-.05.387-.13.537-.244.152-.113.271-.262.358-.447.086-.184.13-.41.13-.677 0-.231-.044-.432-.13-.604a1.206 1.206 0 0 0-.351-.423 1.529 1.529 0 0 0-.517-.25 2.306 2.306 0 0 0-.624-.084h-.613v2.802Zm-1.041-3.763h1.56c.379 0 .738.043 1.078.127.34.085.638.221.891.41.254.19.455.435.604.738.15.302.223.67.223 1.1 0 .383-.072.72-.217 1.011a2.165 2.165 0 0 1-.584.734 2.584 2.584 0 0 1-.846.45c-.32.103-.657.154-1.008.154H84.24v-4.724ZM91.279 13.855h1.134l.754 3.03h.014l.987-3.03h.967l.981 3.11h.014l.794-3.11h1.054l-1.382 4.724h-.927l-1.04-3.27h-.014l-1.041 3.27h-.894l-1.401-4.724ZM98.678 13.855h1.04v4.724h-1.04v-4.724ZM101.827 14.776h-1.348v-.92h3.736v.92h-1.348v3.803h-1.04v-3.803ZM104.989 13.855h1.041v1.762h2.021v-1.762h1.041v4.724h-1.041v-2.042h-2.021v2.042h-1.041v-4.724Z" fill="#00AEEF"/><path d="M64.548 31.699c0-.616-.23-1.042-.692-1.28-.462-.238-1.077-.357-1.846-.357h-1.994v3.4h2.014c.28 0 .57-.025.871-.075.3-.048.574-.136.818-.261.245-.127.444-.305.598-.536.154-.23.231-.527.231-.891Zm-.483-5.896c0-.503-.192-.87-.576-1.101-.385-.231-.955-.347-1.71-.347h-1.763v3.064h1.93c.672 0 1.193-.137 1.564-.41.37-.272.556-.674.556-1.206Zm4.07 6.231c0 .812-.16 1.494-.482 2.046a3.831 3.831 0 0 1-1.28 1.332 5.582 5.582 0 0 1-1.814.724 9.833 9.833 0 0 1-2.088.22h-5.916V21.502h5.916c.573 0 1.161.06 1.762.178a5.225 5.225 0 0 1 1.637.609c.49.287.888.675 1.196 1.164.308.49.462 1.112.462 1.867 0 .826-.224 1.508-.672 2.046-.448.539-1.035.927-1.762 1.165v.042c.42.07.814.199 1.185.388.37.189.693.43.965.724.273.293.49.636.65 1.027.161.392.242.833.242 1.322M69.213 25.908h3.44v10.448h-3.44V25.908Zm3.692-3.336c0 .266-.052.514-.157.745-.105.23-.245.43-.42.598a2.042 2.042 0 0 1-1.395.546c-.56 0-1.028-.186-1.406-.557a1.8 1.8 0 0 1-.566-1.332c0-.252.049-.493.147-.723.097-.232.237-.43.42-.599.181-.167.39-.304.629-.409.237-.105.496-.157.776-.157a2.051 2.051 0 0 1 1.395.545c.175.168.315.367.42.598.105.231.157.48.157.745M78.89 28.468v4.001c0 .492.094.86.284 1.106.188.246.527.369 1.017.369.168 0 .346-.014.535-.042.189-.028.346-.07.472-.126l.042 2.517a5.658 5.658 0 0 1-.902.22 6.374 6.374 0 0 1-1.091.095c-.7 0-1.287-.088-1.763-.263-.475-.175-.857-.427-1.143-.757a2.97 2.97 0 0 1-.619-1.178 5.717 5.717 0 0 1-.189-1.525v-4.417h-1.678v-2.56h1.657V23.16h3.378v2.748h2.455v2.56H78.89ZM93.797 36.377c-.972.238-2.032.357-3.179.357-1.189 0-2.283-.189-3.283-.567-1-.377-1.86-.909-2.581-1.594a7.263 7.263 0 0 1-1.689-2.465c-.406-.958-.608-2.025-.608-3.2 0-1.189.206-2.266.619-3.23a7.183 7.183 0 0 1 1.71-2.466 7.575 7.575 0 0 1 2.56-1.563 9.033 9.033 0 0 1 3.167-.546c1.175 0 2.266.179 3.273.536 1.008.356 1.826.836 2.455 1.437l-2.266 2.58c-.35-.405-.81-.737-1.385-.996-.573-.259-1.224-.389-1.95-.389-.63 0-1.21.116-1.742.347a4.19 4.19 0 0 0-1.385.965 4.377 4.377 0 0 0-.913 1.469 5.145 5.145 0 0 0-.325 1.856c0 .686.098 1.315.294 1.889.196.573.486 1.066.87 1.479.385.412.861.734 1.427.965.567.23 1.214.346 1.941.346.42 0 .818-.032 1.196-.095a4.455 4.455 0 0 0 1.05-.304v-2.706H90.22v-2.895h6.126v7.867c-.727.378-1.577.686-2.549.923ZM105.968 31.09c0-.335-.056-.664-.168-.986a2.46 2.46 0 0 0-1.259-1.448 2.363 2.363 0 0 0-1.07-.23c-.406 0-.762.077-1.07.23a2.34 2.34 0 0 0-.766.598 2.545 2.545 0 0 0-.461.85 3.16 3.16 0 0 0 0 1.973c.104.321.262.611.472.87.209.259.468.465.776.62.307.153.664.23 1.07.23s.762-.077 1.07-.23c.307-.155.566-.361.776-.62.21-.259.368-.549.472-.87.106-.322.158-.651.158-.987Zm3.315 0c0 .854-.154 1.626-.462 2.319a5.208 5.208 0 0 1-1.259 1.762 5.758 5.758 0 0 1-1.846 1.123c-.7.265-1.448.398-2.245.398a6.295 6.295 0 0 1-2.234-.398 5.612 5.612 0 0 1-1.847-1.123 5.266 5.266 0 0 1-1.248-1.762c-.308-.693-.462-1.465-.462-2.319 0-.853.154-1.622.462-2.308a5.182 5.182 0 0 1 1.248-1.74 5.435 5.435 0 0 1 1.847-1.092 6.606 6.606 0 0 1 2.234-.377c.797 0 1.545.125 2.245.377a5.57 5.57 0 0 1 1.846 1.091 5.127 5.127 0 0 1 1.259 1.741c.308.686.462 1.455.462 2.308Z" fill="#414142"/><path d="M114.105 7.926H28.688a3.387 3.387 0 0 0-3.377 3.377v27.669a3.387 3.387 0 0 0 3.377 3.377h85.417a3.387 3.387 0 0 0 3.377-3.377V11.303a3.387 3.387 0 0 0-3.377-3.377Zm0 .75a2.63 2.63 0 0 1 2.626 2.627v27.669a2.63 2.63 0 0 1-2.626 2.627H28.688a2.63 2.63 0 0 1-2.627-2.627V11.303a2.63 2.63 0 0 1 2.627-2.626h85.417Z" fill="#414142"/><path d="M31.526 48S52.05 41.014 52.05 15.37V6.143c0-1.006-.782-1.821-1.77-1.89C46.553 4.076 37.716 3.316 31.526 0c-6.19 3.317-15.027 4.077-18.755 4.251-.988.07-1.771.885-1.771 1.89v9.23C11 41.014 31.526 48 31.526 48Z" fill="#00AEEF"/><path d="M35.404 19.768c-.02 2.671-4.166 2.33-5.501 2.32l-.01-4.72c1.335.009 5.53-.387 5.511 2.4Zm1.048 7.352c-.019 2.936-4.998 2.567-6.601 2.557l-.008-5.206c1.603.012 6.63-.413 6.61 2.649Zm3.368-8.378c-.25-2.802-2.648-3.758-5.699-4.047l.015-3.914-2.365.012.01 3.783a98.326 98.326 0 0 0-1.924.012l.002-3.833-2.383.008.016 3.884c-.512.007-4.766.017-4.766.017l-.005 2.482 3.029-.005-.01 12.485-2.65.015-.021 2.845s3.745-.017 4.298-.009l.008 3.93 2.343.011.011-3.883a87.43 87.43 0 0 0 1.89.032l-.01 3.87 2.383-.002-.009-3.904c3.977-.2 6.766-1.182 7.138-4.912.3-3.004-1.104-4.356-3.357-4.914 1.376-.688 2.242-1.912 2.056-3.963Z" fill="#fff"/></svg>