<svg width="128" height="48" fill="none" xmlns="http://www.w3.org/2000/svg"><path fill="#fff" d="M0 0h128v48H0z"/><path d="M36.26 7.37c-7.625 0-13.828 6.203-13.828 13.828 0 7.624 6.203 13.827 13.827 13.827h57.632c7.623 0 13.826-6.203 13.826-13.827 0-7.625-6.203-13.827-13.826-13.827H36.259Z" fill="#fff"/><path d="M36.26 7.37c-7.625 0-13.828 6.203-13.828 13.828 0 7.624 6.203 13.827 13.827 13.827h57.632c7.623 0 13.826-6.203 13.826-13.827 0-7.625-6.203-13.827-13.826-13.827H36.259Zm57.63 28.833H36.26c-8.274 0-15.005-6.732-15.005-15.005 0-8.274 6.73-15.005 15.004-15.005h57.632c8.273 0 15.004 6.731 15.004 15.005 0 8.273-6.731 15.005-15.004 15.005" fill="#C8C7C7"/><path d="M86.978 18.932a2.079 2.079 0 1 1-.001-4.157 2.079 2.079 0 0 1 0 4.157Zm0-6.13a4.052 4.052 0 1 0 .001 8.104 4.052 4.052 0 0 0-.001-8.105ZM68.395 18.932a2.078 2.078 0 1 1 .001-4.156 2.078 2.078 0 0 1 0 4.156Zm0-6.13a4.052 4.052 0 1 0 .002 8.103 4.052 4.052 0 0 0-.002-8.104Z" fill="#231F20"/><path d="M82.665 19.045c-.256.075-.648.148-.797.148-.692 0-.843-.239-.843-.901v-3.744h1.656v-1.564h-1.656v-2.211H79.16l-.392 2.211h-1.298v.001h-.106c-1.062.005-1.863.653-2.376 1.668l-.648-1.669h-1.337v7.775h2.284v-3.383c0-1.705 1.008-2.794 2.202-2.828h1.25v3.865c0 1.82.932 2.496 2.45 2.496.784 0 1.385-.165 1.745-.285l-.27-1.579ZM93.797 15.444v5.315h-2.22v-7.775h1.348l.451 1.188" fill="#231F20"/><path d="M93.366 14.179c.675-.783 1.6-1.377 2.681-1.377 1.85 0 2.612 1.475 2.612 2.843v5.114h-2.287V15.71c0-.666-.555-1.028-1.157-1.028-.64 0-1.052.367-1.414.758M55.433 10.17h2.546l3.495 6.658V10.17h2.109v10.59h-2.307l-3.734-7.32v7.32h-2.109V10.17Z" fill="#231F20"/><path d="m54.798 30.145.528-.822c.43.317 1.073.612 1.86.612.763 0 1.234-.346 1.234-.947 0-.69-.596-.874-1.574-1.215-.878-.308-1.741-.75-1.741-1.994 0-1.165.919-1.8 2.155-1.8.822 0 1.427.162 1.915.45l-.423.873a3.154 3.154 0 0 0-1.472-.357c-.69 0-1.102.26-1.102.806 0 .642.479.805 1.379 1.101.939.304 1.972.739 1.972 2.116 0 1.166-.833 1.934-2.328 1.934-1.109 0-1.924-.383-2.403-.757ZM61.534 24.085h4.002v.93h-2.863v1.837h2.261v.91h-2.261v2.123h3.037v.929h-4.176v-6.729ZM67.34 27.455c0-1.963.94-3.474 2.816-3.474.84 0 1.505.266 1.972.81l-.664.769c-.401-.393-.742-.586-1.29-.586-1.1 0-1.61.902-1.61 2.567 0 1.563.537 2.355 1.62 2.355.603 0 1.025-.316 1.396-.709l.67.748c-.487.576-1.098.967-2.075.967-1.935 0-2.836-1.475-2.836-3.447ZM74.106 28.239v-4.154h1.147v4.339c0 .925.23 1.53 1.206 1.53.967 0 1.207-.605 1.207-1.53v-4.339h1.159v4.154c0 1.667-.642 2.663-2.375 2.663-1.705 0-2.344-.996-2.344-2.663ZM83.262 27.082c.853 0 1.292-.277 1.292-1.055 0-.747-.448-1.013-1.225-1.013h-1.082v2.068h1.015Zm2.585 3.733h-1.244l-1.292-2.854h-1.064v2.854h-1.139v-6.73h2.195c1.36 0 2.42.488 2.42 1.962 0 1.006-.603 1.511-1.275 1.751l1.4 3.017ZM87.796 24.085h4.002v.93h-2.864v1.837h2.258v.91h-2.258v2.123h3.035v.929h-4.173v-6.729ZM95.507 29.885c1.571 0 2.109-.725 2.109-2.46 0-1.522-.422-2.411-1.967-2.411h-.612v4.871h.47Zm-1.614-5.8h1.68c2.194 0 3.249 1.188 3.249 3.34 0 2.194-1.073 3.39-3.19 3.39h-1.739v-6.73Z" fill="#A7A5A6"/><path d="M36.19 10.13a11.005 11.005 0 0 0-7.827 3.242 11 11 0 0 0-3.242 7.826c0 2.954 1.152 5.734 3.242 7.826a11.01 11.01 0 0 0 7.827 3.242 11.01 11.01 0 0 0 7.827-3.243 11.013 11.013 0 0 0 3.24-7.825 11.015 11.015 0 0 0-3.241-7.827 11.008 11.008 0 0 0-7.826-3.241Zm0 27.258c-8.926 0-16.19-7.264-16.19-16.19 0-8.927 7.264-16.189 16.19-16.189 8.925 0 16.188 7.262 16.189 16.189-.002 8.926-7.264 16.19-16.189 16.19ZM55.087 2.516h-1.262v1.262h1.262V2.516ZM55.087 0h-1.262v1.265h1.262V0ZM51.452 3.769h-1.178v1.232h1.178V3.77Z" fill="#FBBC09"/><path d="M49.126 6.19h-1.19v1.178h1.19V6.189ZM52.774 5.002h-1.322v1.187h1.322V5.002Z" fill="#231F20"/><path d="M46.753 6.19h1.184V5.06h-1.184v1.13ZM51.452 6.19h-1.178v1.178h1.178V6.189ZM53.825 1.265h-1.249v1.25h1.25v-1.25ZM52.576 2.516h-2.302v1.253h2.302V2.516ZM49.126 6.19h1.147V3.77h-1.147v2.42ZM49.126 7.368v1.188h-1.19V7.368h-1.971v.856h-1.058v1.055h1.18v1.177h-1.18V9.279h-1.254v1.846h-1.187v1.178h-.787v1.182h-.866c-.972 1.447-3.41 5.954-4.145 7.79-2.657-3.696-4.719-5.16-6.343-5.69-.875-.264-1.93.69-.476 2.19 3.341 3.675 4.394 6.718 5.41 9.145.537 1.28 2.946 1.48 3.43.176 1.028-2.755 2.519-5.85 4.285-8.392v-1.316h.943V16.2h.99v-1.377h1.184v-1.327h-1.197V12.29h1.197v1.206h1.172l-.002-1.194h.938v-1.44h1.057V9.87h1.017V7.368h-1.147Z" fill="#231F20"/><path d="M29.386 44.879v-.015c0-.746-.506-1.238-1.106-1.238-.601 0-1.129.499-1.129 1.238v.015c0 .747.528 1.239 1.129 1.239.607 0 1.106-.477 1.106-1.24Zm-3.099-1.941h.887v.645c.285-.403.688-.726 1.311-.726.916 0 1.802.726 1.802 2.007v.015c0 1.282-.88 2.007-1.802 2.007-.637 0-1.04-.322-1.311-.681v1.773h-.887v-5.04ZM34.247 44.894v-.015c0-.682-.49-1.245-1.187-1.245-.71 0-1.164.556-1.164 1.23v.015c0 .674.49 1.245 1.179 1.245.718 0 1.172-.564 1.172-1.23Zm-3.238 0v-.015c0-1.106.88-2.022 2.066-2.022 1.187 0 2.058.901 2.058 2.007v.015c0 1.099-.878 2.015-2.073 2.015-1.18 0-2.051-.901-2.051-2ZM35.561 42.938h.909l.776 2.652.857-2.667h.755l.864 2.667.791-2.652h.886l-1.267 3.897h-.791l-.864-2.645-.872 2.645h-.79l-1.254-3.897ZM44.719 44.6c-.059-.57-.395-1.017-.982-1.017-.542 0-.922.418-1.003 1.018h1.985Zm-2.864.286v-.015c0-1.105.784-2.014 1.89-2.014 1.23 0 1.853.967 1.853 2.081 0 .08-.007.16-.014.249H42.74c.095.63.542.981 1.114.981.432 0 .74-.16 1.047-.46l.52.46c-.366.44-.872.726-1.582.726-1.12 0-1.986-.814-1.986-2.008M46.521 42.938h.887v.871c.241-.578.688-.973 1.37-.945v.938h-.052c-.777 0-1.318.506-1.318 1.532v1.472h-.887v-3.868ZM52.156 44.6c-.058-.57-.395-1.017-.981-1.017-.543 0-.923.418-1.003 1.018h1.984Zm-2.864.286v-.015c0-1.105.784-2.014 1.89-2.014 1.23 0 1.853.967 1.853 2.081 0 .08-.007.16-.014.249h-2.843c.096.63.543.981 1.114.981.432 0 .74-.16 1.047-.46l.52.46c-.366.44-.871.726-1.581.726-1.121 0-1.986-.814-1.986-2.008M56.883 44.879v-.015c0-.746-.528-1.238-1.121-1.238-.608 0-1.114.47-1.114 1.238v.015c0 .747.513 1.239 1.114 1.239.593 0 1.12-.5 1.12-1.24Zm-3.128 0v-.015c0-1.281.871-2.007 1.794-2.007.637 0 1.04.323 1.319.681v-2.08h.886v5.348h-.886v-.645c-.286.403-.689.725-1.319.725-.908 0-1.794-.725-1.794-2.007ZM64.153 44.879v-.015c0-.746-.505-1.238-1.106-1.238-.6 0-1.128.499-1.128 1.238v.015c0 .747.527 1.239 1.128 1.239.608 0 1.106-.477 1.106-1.24Zm-2.212 1.326v.6h-.886v-5.347h.886v2.125c.286-.403.689-.726 1.311-.726.916 0 1.802.726 1.802 2.007v.015c0 1.282-.879 2.007-1.802 2.007-.637 0-1.04-.322-1.31-.681ZM65.658 47.765l.3-.66c.161.09.337.148.52.148.25 0 .403-.11.55-.447l-1.612-3.868h.945l1.099 2.871 1.004-2.871h.922l-1.538 3.978c-.307.79-.652 1.084-1.275 1.084-.373 0-.644-.088-.915-.235Z" fill="#A7A5A6"/><path d="M72.006 41.678h.996l1.546 3.94 1.538-3.94h.974l-2.131 5.164h-.79l-2.133-5.164ZM80.106 44.6c-.058-.57-.395-1.017-.981-1.017-.543 0-.923.418-1.004 1.018h1.985Zm-2.864.286v-.015c0-1.105.784-2.014 1.89-2.014 1.231 0 1.853.967 1.853 2.081 0 .08-.007.16-.014.249h-2.842c.095.63.542.981 1.112.981.433 0 .74-.16 1.048-.46l.52.46c-.366.44-.871.726-1.582.726-1.12 0-1.985-.814-1.985-2.008M81.908 42.938h.887v.871c.242-.578.689-.973 1.37-.945v.938h-.051c-.777 0-1.32.506-1.32 1.532v1.472h-.886v-3.868ZM84.926 42.938h.887v3.868h-.887v-3.868Zm-.037-1.436h.952v.842h-.951v-.842ZM86.732 46.059l.542-.645c.491.425.982.666 1.619.666.557 0 .909-.256.909-.644v-.015c0-.366-.206-.565-1.158-.783-1.092-.264-1.707-.586-1.707-1.532v-.014c0-.88.732-1.487 1.75-1.487.748 0 1.341.227 1.861.644l-.483.68c-.461-.343-.923-.526-1.392-.526-.528 0-.834.271-.834.608v.015c0 .395.233.571 1.216.806 1.083.263 1.647.651 1.647 1.502v.013c0 .96-.754 1.532-1.831 1.532-.784 0-1.523-.271-2.14-.82ZM91.717 42.938h.886v3.868h-.886v-3.868Zm-.037-1.436h.952v.842h-.952v-.842ZM96.655 44.688v-.015c0-.636-.52-1.07-1.135-1.07s-1.099.426-1.099 1.064v.014c0 .638.49 1.07 1.099 1.07.616 0 1.135-.44 1.135-1.063Zm-2.937 2.843.33-.666c.41.256.85.41 1.377.41.791 0 1.223-.41 1.223-1.187v-.3c-.322.417-.725.71-1.362.71-.909 0-1.758-.674-1.758-1.81v-.015c0-1.142.857-1.816 1.758-1.816.652 0 1.055.3 1.355.66v-.58h.886v3.077c0 .652-.168 1.136-.49 1.458-.352.352-.894.52-1.59.52-.637 0-1.23-.16-1.729-.46M98.666 42.938h.886v.6c.25-.365.608-.68 1.209-.68.872 0 1.377.585 1.377 1.486v2.462h-.887v-2.198c0-.6-.299-.945-.827-.945-.513 0-.872.36-.872.96v2.183h-.886v-3.868Z" fill="#A20641"/></svg>