<svg width="128" height="48" fill="none" xmlns="http://www.w3.org/2000/svg"><path fill="#fff" d="M0 0h128v48H0z"/><path d="m84.629 27.673 5.302-16.988h-2.51l-5.323 16.988h2.53ZM79.957 27.673l5.303-16.988h-2.51l-5.323 16.988h2.53ZM93.441 23.129c.396 1.503 1.524 2.295 3.235 2.295 1.638 0 2.651-.986 2.651-2.483 0-1.638-1.241-2.04-2.98-2.886-2.98-1.45-4.617-2.578-4.617-5.108 0-2.698 1.993-4.59 5.04-4.59 2.484 0 4.195 1.006 4.826 2.764l-2.134 1.101c-.658-1.033-1.43-1.523-2.484-1.523-1.476 0-2.39.845-2.39 2.107 0 1.618 1.316 2.108 3.189 2.98 2.953 1.363 4.336 2.557 4.336 4.967 0 3.114-2.088 5.181-5.558 5.181-2.859 0-4.731-1.362-5.295-3.799l2.181-1.006ZM110.509 27.491h-2.718V13.054h-4.457v-2.322h11.605v2.322h-4.43v14.437ZM44.861 27.491h-2.725V13.054h-4.45v-2.322h11.605v2.322h-4.43v14.437ZM53.768 27.491H51.21V10.732h3.799c1.805 0 3.14.141 4.174.94 1.007.798 1.618 2.107 1.618 3.678 0 2.698-1.316 4.222-3.846 4.524l5.765 7.617h-3.074l-5.577-7.503h-.302v7.503Zm.658-9.61c2.389 0 3.584-.283 3.584-2.296 0-2.06-1.148-2.51-3.584-2.51h-.49v4.805h.49ZM65.386 10.732v10.175c0 3.02 1.41 4.544 4.175 4.544 2.765 0 4.174-1.524 4.174-4.544V10.732h2.719v10.43c0 4.524-2.276 6.772-6.893 6.772-4.618 0-6.867-2.248-6.867-6.772v-10.43h2.692ZM43.116 37.962H41.95V30.33h1.879c.778 0 1.396.02 1.913.397.47.342.765.973.765 1.704 0 .739-.302 1.376-.765 1.719-.51.362-1.135.382-1.913.382h-.719v3.43h.007Zm.39-4.437c1.14 0 1.718-.127 1.718-1.013 0-.92-.564-1.108-1.718-1.108h-.322v2.121h.322ZM53.493 36.002h-3.02l-.886 1.966h-1.303l3.692-7.926 3.691 7.926h-1.315l-.86-1.966Zm-.437-1.04-.778-1.739a6.725 6.725 0 0 1-.289-.866 6.41 6.41 0 0 1-.275.866l-.779 1.739h2.121ZM59.869 34.472l-2.57-4.142h1.295l1.597 2.591c.034.054.148.255.322.611a3.14 3.14 0 0 1 .322-.638l1.645-2.563h1.235l-2.625 4.14v3.49H59.87v-3.49ZM73.151 33.15a3.907 3.907 0 0 1-.355 1.053l-1.994 4.067-1.993-4.154a6.499 6.499 0 0 1-.376-.973 5.95 5.95 0 0 1-.14 1.053l-.82 3.759h-1.14l1.805-7.927 2.255 4.793c.067.14.201.483.416 1.033.148-.43.322-.765.436-1.033l2.202-4.793 1.846 7.927h-1.155l-.846-3.765c-.033-.134-.067-.477-.14-1.04ZM79.125 30.33h4.262v1.06H80.36v1.907h3.027v1.094H80.36v2.463h3.027v1.108h-4.262V30.33ZM87.488 30.035l4.846 4.665c.308.302.577.61.832.926V30.33h1.141v7.927l-4.94-4.752a6.71 6.71 0 0 1-.738-.852v5.302h-1.141v-7.92ZM101.2 37.962h-1.235V31.39h-2.027v-1.06h5.282v1.06h-2.02v6.57ZM106.757 35.982c.182.684.692 1.047 1.47 1.047.745 0 1.208-.45 1.208-1.135 0-.744-.563-.926-1.355-1.315-1.356-.665-2.101-1.175-2.101-2.329 0-1.228.906-2.094 2.295-2.094 1.134 0 1.913.456 2.202 1.262l-.974.503c-.302-.47-.651-.691-1.134-.691-.671 0-1.087.382-1.087.96 0 .738.597.96 1.45 1.355 1.342.618 1.973 1.161 1.973 2.262 0 1.416-.953 2.356-2.53 2.356-1.303 0-2.155-.617-2.41-1.732l.993-.45Z" fill="#000"/><path d="m29.404 4.034-12.396 39.6H22.9l97.347.033V4.034H29.404Zm89.904 38.686H23.182L34.968 4.973h84.334V42.72h.006ZM20.45 4.034l-12.382 39.6h5.893l12.35-39.6h-5.86Z" fill="#000"/></svg>